<svg width="320" height="320" viewBox="0 0 320 320" fill="none" xmlns="http://www.w3.org/2000/svg">
<rect x="2" y="2" width="316" height="316" stroke="black" stroke-width="4"/>
<path d="M12.6562 118.25H19.9062L29.0312 146.188V162H21.8438V146.25L12.6562 118.25ZM27.5938 130.438L32.1562 118.25H39.3438L31.3438 141.688H30.8438L27.5938 130.438ZM42.7812 152.562V136.75C42.7812 134.708 43.6979 132.729 45.5312 130.812C47.6979 128.521 50.4271 127.375 53.7188 127.375V133.812C51.5521 133.812 50.1562 134.708 49.5312 136.5C49.4062 136.875 49.3438 137.25 49.3438 137.625V151.688C49.3438 153.271 50.0729 154.417 51.5312 155.125C52.1979 155.458 52.9479 155.625 53.7812 155.625V162.062C49.7396 162.062 46.6146 160.438 44.4062 157.188C43.3229 155.562 42.7812 154.021 42.7812 152.562ZM56.5312 162.062V155.625C58.5312 155.625 59.8438 154.771 60.4688 153.062C60.6354 152.604 60.7188 152.188 60.7188 151.812V137.625C60.7188 135.875 59.9062 134.708 58.2812 134.125C57.7396 133.917 57.1354 133.812 56.4688 133.812V127.375C60.3854 127.375 63.4062 128.958 65.5312 132.125C66.6146 133.75 67.1562 135.292 67.1562 136.75V152.562C67.1562 154.604 66.2812 156.604 64.5312 158.562C62.4062 160.854 59.7396 162.021 56.5312 162.062ZM72.0938 162V118.25H94.8438V125.125H79.0938V136.75H88.9688V143.75H79.0938V155.062H94.8438V162H72.0938ZM98.4688 162L107.906 139.438L99.2188 118.25H106.031L111.344 130.438L116.719 118.25H123.469L114.844 139.438L124.219 162H117.094L111.344 148.688L105.656 162H98.4688ZM128.094 162V118.25H135.094V162H128.094ZM138.281 142.25V135.438H142.469C145.51 135.438 147.156 133.958 147.406 131C147.406 130.75 147.406 130.5 147.406 130.25C147.115 126.958 145.469 125.229 142.469 125.062H138.281V118.25H143.031C150.615 118.375 154.427 122.333 154.469 130.125C154.469 136.167 152.552 139.938 148.719 141.438C147.135 141.979 145.24 142.25 143.031 142.25C142.948 142.25 141.365 142.25 138.281 142.25ZM158.031 162V118.25H165.031V155.125H181.531V162H158.031ZM185.031 149.812V129.25C185.031 127.042 185.969 124.792 187.844 122.5C190.344 119.5 193.51 117.979 197.344 117.938V124.875C195.177 124.917 193.552 126.083 192.469 128.375C192.135 129.125 191.969 129.75 191.969 130.25V149.812C191.969 152.062 193.135 153.729 195.469 154.812C196.177 155.146 196.781 155.312 197.281 155.312V162.312C194.906 162.312 192.531 161.458 190.156 159.75C186.781 157.25 185.073 153.938 185.031 149.812ZM200.719 162.312V155.312C201.802 155.312 202.927 154.812 204.094 153.812C205.344 152.688 205.99 151.354 206.031 149.812V130.25C206.031 129 205.49 127.792 204.406 126.625C203.365 125.5 202.135 124.917 200.719 124.875V117.938C204.927 117.938 208.302 119.75 210.844 123.375C212.302 125.458 213.031 127.417 213.031 129.25V149.812C213.031 154.438 210.969 157.979 206.844 160.438C204.677 161.688 202.635 162.312 200.719 162.312ZM218.031 162V118.25H225.031V162H218.031ZM228.219 143.562V137.312H231.719C235.344 137.312 237.344 135.583 237.719 132.125C237.76 131.75 237.781 131.396 237.781 131.062C237.781 127.562 236.198 125.5 233.031 124.875C232.448 124.792 231.844 124.75 231.219 124.75H228.219V118.25H232.031C237.573 118.375 241.302 120.438 243.219 124.438C244.01 126.104 244.406 128.021 244.406 130.188C244.365 134.812 242.948 138.167 240.156 140.25C242.323 141.5 243.698 143.729 244.281 146.938C244.365 147.479 244.427 147.979 244.469 148.438L245.531 162H239.031L238.094 150.875C237.76 147.375 236.823 145.167 235.281 144.25C234.365 143.792 233.219 143.562 231.844 143.562H228.219ZM249.594 162V118.25H272.344V125.125H256.594V136.75H266.469V143.75H256.594V155.062H272.344V162H249.594ZM277.406 162V118.25H284.406V162H277.406ZM287.594 143.562V137.312H291.094C294.719 137.312 296.719 135.583 297.094 132.125C297.135 131.75 297.156 131.396 297.156 131.062C297.156 127.562 295.573 125.5 292.406 124.875C291.823 124.792 291.219 124.75 290.594 124.75H287.594V118.25H291.406C296.948 118.375 300.677 120.438 302.594 124.438C303.385 126.104 303.781 128.021 303.781 130.188C303.74 134.812 302.323 138.167 299.531 140.25C301.698 141.5 303.073 143.729 303.656 146.938C303.74 147.479 303.802 147.979 303.844 148.438L304.906 162H298.406L297.469 150.875C297.135 147.375 296.198 145.167 294.656 144.25C293.74 143.792 292.594 143.562 291.219 143.562H287.594Z" fill="black"/>
<path d="M101.501 195.872H100.467V203H98.6405V187.6H100.467V194.772L101.457 194.464L106.627 187.6H108.739L103.591 194.222L102.667 194.948L103.789 195.828L109.421 203H107.111L101.501 195.872ZM114.855 196.884L109.773 187.6H111.907L115.515 194.332L115.889 195.674H115.911L116.307 194.288L119.761 187.6H121.719L116.681 196.862V203H114.855V196.884ZM123.734 187.754C124.292 187.651 124.93 187.571 125.648 187.512C126.382 187.453 127.049 187.424 127.65 187.424C128.325 187.424 128.963 187.497 129.564 187.644C130.18 187.791 130.716 188.033 131.17 188.37C131.64 188.707 132.014 189.147 132.292 189.69C132.571 190.233 132.71 190.893 132.71 191.67C132.71 192.873 132.38 193.848 131.72 194.596C131.06 195.344 130.224 195.843 129.212 196.092L130.268 196.906L134.096 203H131.962L127.716 196.356L125.56 196.026V203H123.734V187.754ZM127.694 189.008C127.504 189.008 127.306 189.008 127.1 189.008C126.895 189.008 126.697 189.015 126.506 189.03C126.316 189.045 126.132 189.059 125.956 189.074C125.795 189.089 125.663 189.111 125.56 189.14V194.816H127.276C128.288 194.816 129.124 194.567 129.784 194.068C130.444 193.569 130.774 192.792 130.774 191.736C130.774 190.944 130.503 190.291 129.96 189.778C129.418 189.265 128.662 189.008 127.694 189.008ZM141.043 195.322H146.213V202.098C145.979 202.274 145.693 202.435 145.355 202.582C145.033 202.729 144.681 202.853 144.299 202.956C143.933 203.059 143.544 203.132 143.133 203.176C142.737 203.235 142.349 203.264 141.967 203.264C140.985 203.264 140.083 203.11 139.261 202.802C138.44 202.479 137.729 201.995 137.127 201.35C136.526 200.69 136.057 199.861 135.719 198.864C135.382 197.852 135.213 196.664 135.213 195.3C135.213 193.877 135.419 192.66 135.829 191.648C136.24 190.636 136.775 189.815 137.435 189.184C138.095 188.539 138.836 188.069 139.657 187.776C140.479 187.483 141.3 187.336 142.121 187.336C143.001 187.336 143.727 187.387 144.299 187.49C144.871 187.578 145.355 187.703 145.751 187.864L145.289 189.47C144.585 189.133 143.581 188.964 142.275 188.964C141.659 188.964 141.043 189.074 140.427 189.294C139.826 189.499 139.283 189.851 138.799 190.35C138.315 190.849 137.919 191.501 137.611 192.308C137.303 193.115 137.149 194.112 137.149 195.3C137.149 196.385 137.274 197.324 137.523 198.116C137.773 198.908 138.117 199.568 138.557 200.096C139.012 200.609 139.555 200.998 140.185 201.262C140.816 201.511 141.505 201.636 142.253 201.636C143.192 201.636 143.991 201.453 144.651 201.086V196.796L141.043 196.356V195.322ZM152.71 196.884L147.628 187.6H149.762L153.37 194.332L153.744 195.674H153.766L154.162 194.288L157.616 187.6H159.574L154.536 196.862V203H152.71V196.884ZM159.997 201.35L167.763 190.108L168.687 189.228H159.997V187.6H170.337V189.25L162.527 200.558L161.603 201.372H170.337V203H159.997V201.35ZM179.971 199.084C179.971 198.468 179.788 197.969 179.421 197.588C179.055 197.192 178.593 196.847 178.035 196.554C177.493 196.246 176.899 195.96 176.253 195.696C175.608 195.432 175.007 195.117 174.449 194.75C173.907 194.369 173.452 193.907 173.085 193.364C172.719 192.807 172.535 192.103 172.535 191.252C172.535 190.049 172.953 189.096 173.789 188.392C174.625 187.688 175.813 187.336 177.353 187.336C178.248 187.336 179.062 187.402 179.795 187.534C180.529 187.666 181.101 187.835 181.511 188.04L180.961 189.646C180.624 189.485 180.125 189.331 179.465 189.184C178.82 189.037 178.087 188.964 177.265 188.964C176.297 188.964 175.571 189.184 175.087 189.624C174.603 190.049 174.361 190.555 174.361 191.142C174.361 191.714 174.545 192.191 174.911 192.572C175.278 192.953 175.733 193.298 176.275 193.606C176.833 193.899 177.434 194.193 178.079 194.486C178.725 194.779 179.319 195.124 179.861 195.52C180.419 195.901 180.881 196.363 181.247 196.906C181.614 197.449 181.797 198.123 181.797 198.93C181.797 199.59 181.68 200.184 181.445 200.712C181.211 201.24 180.866 201.695 180.411 202.076C179.957 202.457 179.407 202.751 178.761 202.956C178.116 203.161 177.383 203.264 176.561 203.264C175.461 203.264 174.552 203.176 173.833 203C173.115 202.839 172.557 202.655 172.161 202.45L172.777 200.8C173.115 200.991 173.613 201.181 174.273 201.372C174.933 201.548 175.674 201.636 176.495 201.636C176.979 201.636 177.434 201.592 177.859 201.504C178.285 201.401 178.651 201.247 178.959 201.042C179.267 200.822 179.509 200.551 179.685 200.228C179.876 199.905 179.971 199.524 179.971 199.084ZM194.651 189.228H189.855V203H188.029V189.228H183.233V187.6H194.651V189.228ZM202.754 198.732H197.078L195.538 203H193.734L199.564 187.358H200.4L206.252 203H204.338L202.754 198.732ZM197.672 197.148H202.204L200.488 192.462L199.938 190.13H199.916L199.366 192.506L197.672 197.148ZM211.069 192.924L209.881 190.702H209.793L210.013 192.924V203H208.297V187.358H209.265L216.635 197.632L217.779 199.744H217.889L217.647 197.632V187.6H219.363V203.242H218.395L211.069 192.924Z" fill="black"/>
<line x1="70" y1="174" x2="249" y2="174" stroke="black" stroke-width="2"/>
</svg>
